<?xml version="1.0" encoding="utf-8"?>
<!-- Generator: Adobe Illustrator 22.1.0, SVG Export Plug-In . SVG Version: 6.00 Build 0)  -->
<svg version="1.1" id="Layer_1" xmlns="http://www.w3.org/2000/svg" xmlns:xlink="http://www.w3.org/1999/xlink" x="0px" y="0px"
	 viewBox="0 0 10.3 11.4" style="enable-background:new 0 0 10.3 11.4;" xml:space="preserve">
<path d="M7.9,8.8c0,0.2-0.1,0.3-0.3,0.3H5.2C5,9.1,4.8,9.2,4.7,9.3l-1.2,0.9V9.9c0-0.5-0.4-0.8-0.8-0.8H1.1C0.9,9.1,0.8,9,0.8,8.8
	v-5c0-0.2,0.1-0.3,0.3-0.3h1.2C2.2,3.2,2.1,3,2,2.7H1.1C0.5,2.7,0,3.2,0,3.8v4.9c0,0.6,0.5,1.1,1.1,1.1h1.6v1.4
	c0,0.1,0.1,0.2,0.2,0.2s0.2,0,0.3,0l0.3-0.2l0.1-0.1l0,0l1.7-1.3h2.4c0.6,0,1.1-0.5,1.1-1.1V6.5C8.5,6.5,8.2,6.4,8,6.4L7.9,8.8
	C8,8.8,7.9,8.8,7.9,8.8z"/>
<path d="M9.2,6.3c0.2,0,0.3-0.1,0.3-0.3V1.1c0-0.2-0.1-0.3-0.3-0.3H2.6c-0.2,0-0.3,0.1-0.3,0.3V6c0,0.2,0.1,0.3,0.3,0.3H5
	c0.2,0,0.4,0.1,0.5,0.2l1.2,0.9V7.1c0-0.5,0.4-0.8,0.8-0.8C7.5,6.3,9.2,6.3,9.2,6.3z M5,7.1H2.6C2,7.1,1.5,6.6,1.5,6V1.1
	C1.5,0.5,2,0,2.6,0h6.6c0.6,0,1.1,0.5,1.1,1.1V6c0,0.6-0.5,1.1-1.1,1.1H8.4H7.6v0.8V8l0,0v0.1v0.4c0,0.1-0.1,0.2-0.2,0.2
	s-0.2,0-0.3,0L6.8,8.5L6.7,8.4l0,0L5,7.1z"/>
</svg>
