<?xml version="1.0" encoding="utf-8"?>
<svg version="1.1" id="Layer_1" xmlns="http://www.w3.org/2000/svg" xmlns:xlink="http://www.w3.org/1999/xlink" x="0px" y="0px"
	 viewBox="0 0 512 12" style="enable-background:new 0 0 512 12;" xml:space="preserve">
<path d="M261.2,9.3c0,0.2-0.1,0.3-0.3,0.3h-2.4c-0.2,0-0.4,0.1-0.5,0.2l-1.2,0.9v-0.3c0-0.5-0.4-0.8-0.8-0.8h-1.6
	c-0.2,0-0.3-0.1-0.3-0.3V4.3c0-0.2,0.1-0.3,0.3-0.3h1.2c-0.1-0.3-0.2-0.5-0.3-0.8h-0.9c-0.6,0-1.1,0.5-1.1,1.1v4.9
	c0,0.6,0.5,1.1,1.1,1.1h1.6v1.4c0,0.1,0.1,0.2,0.2,0.2c0.1,0,0.2,0,0.3,0l0.3-0.2l0.1-0.1l0,0l1.7-1.3h2.4c0.6,0,1.1-0.5,1.1-1.1V7
	c-0.3,0-0.6-0.1-0.8-0.1V9.3z"/>
<path d="M262.5,6.8c0.2,0,0.3-0.1,0.3-0.3V1.6c0-0.2-0.1-0.3-0.3-0.3h-6.6c-0.2,0-0.3,0.1-0.3,0.3v4.9c0,0.2,0.1,0.3,0.3,0.3h2.4
	c0.2,0,0.4,0.1,0.5,0.2l1.2,0.9V7.6c0-0.5,0.4-0.8,0.8-0.8H262.5z M258.3,7.6h-2.4c-0.6,0-1.1-0.5-1.1-1.1V1.6
	c0-0.6,0.5-1.1,1.1-1.1h6.6c0.6,0,1.1,0.5,1.1,1.1v4.9c0,0.6-0.5,1.1-1.1,1.1h-0.8h-0.8v0.8v0.1v0v0.1V9c0,0.1-0.1,0.2-0.2,0.2
	s-0.2,0-0.3,0L260.1,9L260,8.9l0,0L258.3,7.6z"/>
</svg>
