<svg width="48" height="48" viewBox="0 0 48 48" fill="none" xmlns="http://www.w3.org/2000/svg">
<mask id="mask0_3_290" style="mask-type:alpha" maskUnits="userSpaceOnUse" x="0" y="0" width="48" height="48">
<rect width="48" height="48" fill="#D9D9D9"/>
</mask>
<g mask="url(#mask0_3_290)">
<path d="M33.35 42L32.85 38.7C32.2833 38.5333 31.7083 38.2917 31.125 37.975C30.5417 37.6583 30.05 37.3 29.65 36.9L26.9 37.5L25.65 35.4L28 33.2C27.9333 32.9 27.9 32.4833 27.9 31.95C27.9 31.4167 27.9333 31 28 30.7L25.65 28.5L26.9 26.4L29.65 27C30.05 26.6 30.5417 26.2417 31.125 25.925C31.7083 25.6083 32.2833 25.3667 32.85 25.2L33.35 21.9H36.05L36.55 25.2C37.1167 25.3667 37.6917 25.6083 38.275 25.925C38.8583 26.2417 39.35 26.6 39.75 27L42.5 26.4L43.75 28.5L41.4 30.7C41.4667 31 41.5 31.4167 41.5 31.95C41.5 32.4833 41.4667 32.9 41.4 33.2L43.75 35.4L42.5 37.5L39.75 36.9C39.35 37.3 38.8583 37.6583 38.275 37.975C37.6917 38.2917 37.1167 38.5333 36.55 38.7L36.05 42H33.35ZM4 39.8V35.1C4 33.9333 4.29167 32.8833 4.875 31.95C5.45833 31.0167 6.3 30.3 7.4 29.8C9.8 28.7333 12.025 27.9667 14.075 27.5C16.125 27.0333 18.1 26.8 20 26.8H21.15C20.45 28.5 20.1333 30.7417 20.2 33.525C20.2667 36.3083 20.8333 38.4 21.9 39.8H4ZM34.7 35.95C35.9 35.95 36.8667 35.5833 37.6 34.85C38.3333 34.1167 38.7 33.15 38.7 31.95C38.7 30.75 38.3333 29.7833 37.6 29.05C36.8667 28.3167 35.9 27.95 34.7 27.95C33.5 27.95 32.5333 28.3167 31.8 29.05C31.0667 29.7833 30.7 30.75 30.7 31.95C30.7 33.15 31.0667 34.1167 31.8 34.85C32.5333 35.5833 33.5 35.95 34.7 35.95ZM20 23.75C17.8 23.75 16 23.05 14.6 21.65C13.2 20.25 12.5 18.45 12.5 16.25C12.5 14.05 13.2 12.25 14.6 10.85C16 9.45 17.8 8.75 20 8.75C22.2 8.75 24 9.45 25.4 10.85C26.8 12.25 27.5 14.05 27.5 16.25C27.5 18.45 26.8 20.25 25.4 21.65C24 23.05 22.2 23.75 20 23.75Z" fill="white"/>
</g>
</svg>
