<svg width="48" height="48" viewBox="0 0 48 48" fill="none" xmlns="http://www.w3.org/2000/svg">
<mask id="mask0_3_247" style="mask-type:alpha" maskUnits="userSpaceOnUse" x="0" y="0" width="48" height="48">
<rect width="48" height="48" fill="#D9D9D9"/>
</mask>
<g mask="url(#mask0_3_247)">
<path d="M11 46C10.1667 46 9.45833 45.7083 8.875 45.125C8.29167 44.5417 8 43.8333 8 43V5C8 4.16667 8.29167 3.45833 8.875 2.875C9.45833 2.29167 10.1667 2 11 2H33C33.8333 2 34.5417 2.29167 35.125 2.875C35.7083 3.45833 36 4.16667 36 5V12.3H33V9.5H11V38.5H33V35.7H36V43C36 43.8333 35.7083 44.5417 35.125 45.125C34.5417 45.7083 33.8333 46 33 46H11ZM29.9 32L21.4 23.5L23.55 21.4L29.9 27.75L41.85 15.8L44 17.9L29.9 32Z" fill="white"/>
</g>
</svg>
