<svg width="48" height="48" viewBox="0 0 48 48" fill="none" xmlns="http://www.w3.org/2000/svg">
<mask id="mask0_3_235" style="mask-type:alpha" maskUnits="userSpaceOnUse" x="0" y="0" width="48" height="48">
<rect width="48" height="48" fill="#D9D9D9"/>
</mask>
<g mask="url(#mask0_3_235)">
<path d="M22.25 44C21.2833 44 20.35 43.8 19.45 43.4C18.55 43 17.8 42.4167 17.2 41.65L6.34998 27.85L7.39998 26.7C7.86664 26.2 8.44164 25.8917 9.12498 25.775C9.80831 25.6583 10.45 25.7667 11.05 26.1L16 28.75V10.5C16 10.0667 16.1416 9.70833 16.425 9.425C16.7083 9.14167 17.0666 9 17.5 9C17.9333 9 18.2916 9.14167 18.575 9.425C18.8583 9.70833 19 10.0667 19 10.5V22H34C35.6666 22 37.0833 22.5833 38.25 23.75C39.4166 24.9167 40 26.3333 40 28V36.5C40 38.6 39.275 40.375 37.825 41.825C36.375 43.275 34.6 44 32.5 44H22.25ZM10.15 14.75C9.78331 14.1167 9.49998 13.4417 9.29998 12.725C9.09998 12.0083 8.99998 11.2667 8.99998 10.5C8.99998 8.13333 9.82498 6.125 11.475 4.475C13.125 2.825 15.1333 2 17.5 2C19.8666 2 21.875 2.825 23.525 4.475C25.175 6.125 26 8.13333 26 10.5C26 11.2667 25.9 12.0083 25.7 12.725C25.5 13.4417 25.2166 14.1167 24.85 14.75L22.25 13.25C22.4833 12.85 22.6666 12.4167 22.8 11.95C22.9333 11.4833 23 11 23 10.5C23 8.96667 22.4666 7.66667 21.4 6.6C20.3333 5.53333 19.0333 5 17.5 5C15.9666 5 14.6666 5.53333 13.6 6.6C12.5333 7.66667 12 8.96667 12 10.5C12 11 12.0666 11.4833 12.2 11.95C12.3333 12.4167 12.5166 12.85 12.75 13.25L10.15 14.75Z" fill="white"/>
</g>
</svg>
