<svg width="214" height="214" viewBox="0 0 214 214" fill="none" xmlns="http://www.w3.org/2000/svg">
<mask id="mask0_3_27" style="mask-type:alpha" maskUnits="userSpaceOnUse" x="0" y="0" width="214" height="214">
<rect width="214" height="214" fill="#D9D9D9"/>
</mask>
<g mask="url(#mask0_3_27)">
<path d="M62.6397 125.056C65.1661 125.056 67.2838 124.202 68.9929 122.493C70.7019 120.784 71.5564 118.666 71.5564 116.14C71.5564 113.613 70.7019 111.495 68.9929 109.786C67.2838 108.077 65.1661 107.223 62.6397 107.223C60.1134 107.223 57.9956 108.077 56.2866 109.786C54.5776 111.495 53.7231 113.613 53.7231 116.14C53.7231 118.666 54.5776 120.784 56.2866 122.493C57.9956 124.202 60.1134 125.056 62.6397 125.056ZM62.6397 98.3062C65.1661 98.3062 67.2838 97.4517 68.9929 95.7427C70.7019 94.0337 71.5564 91.916 71.5564 89.3896C71.5564 86.8632 70.7019 84.7455 68.9929 83.0364C67.2838 81.3274 65.1661 80.4729 62.6397 80.4729C60.1134 80.4729 57.9956 81.3274 56.2866 83.0364C54.5776 84.7455 53.7231 86.8632 53.7231 89.3896C53.7231 91.916 54.5776 94.0337 56.2866 95.7427C57.9956 97.4517 60.1134 98.3062 62.6397 98.3062ZM62.6397 71.5562C65.1661 71.5562 67.2838 70.7017 68.9929 68.9927C70.7019 67.2837 71.5564 65.166 71.5564 62.6396C71.5564 60.1132 70.7019 57.9955 68.9929 56.2864C67.2838 54.5774 65.1661 53.7229 62.6397 53.7229C60.1134 53.7229 57.9956 54.5774 56.2866 56.2864C54.5776 57.9955 53.7231 60.1132 53.7231 62.6396C53.7231 65.166 54.5776 67.2837 56.2866 68.9927C57.9956 70.7017 60.1134 71.5562 62.6397 71.5562ZM89.1668 122.827H133.75V109.452H89.1668V122.827ZM89.1668 96.0771H160.723V82.7021H89.1668V96.0771ZM89.1668 69.3271H160.723V55.9521H89.1668V69.3271ZM17.8335 196.167V31.2083C17.8335 27.6416 19.171 24.5208 21.846 21.8458C24.521 19.1708 27.6418 17.8333 31.2085 17.8333H182.792C186.358 17.8333 189.479 19.1708 192.154 21.8458C194.829 24.5208 196.167 27.6416 196.167 31.2083V147.125C196.167 150.692 194.829 153.812 192.154 156.487C189.479 159.162 186.358 160.5 182.792 160.5H53.5002L17.8335 196.167Z" fill="black"/>
</g>
</svg>
