<svg width="48" height="48" viewBox="0 0 48 48" fill="none" xmlns="http://www.w3.org/2000/svg">
<mask id="mask0_3_238" style="mask-type:alpha" maskUnits="userSpaceOnUse" x="0" y="0" width="48" height="48">
<rect width="48" height="48" fill="#D9D9D9"/>
</mask>
<g mask="url(#mask0_3_238)">
<path d="M14.05 28.05C14.6167 28.05 15.0917 27.8583 15.475 27.475C15.8583 27.0917 16.05 26.6167 16.05 26.05C16.05 25.4833 15.8583 25.0083 15.475 24.625C15.0917 24.2417 14.6167 24.05 14.05 24.05C13.4833 24.05 13.0083 24.2417 12.625 24.625C12.2417 25.0083 12.05 25.4833 12.05 26.05C12.05 26.6167 12.2417 27.0917 12.625 27.475C13.0083 27.8583 13.4833 28.05 14.05 28.05ZM14.05 22.05C14.6167 22.05 15.0917 21.8583 15.475 21.475C15.8583 21.0917 16.05 20.6167 16.05 20.05C16.05 19.4833 15.8583 19.0083 15.475 18.625C15.0917 18.2417 14.6167 18.05 14.05 18.05C13.4833 18.05 13.0083 18.2417 12.625 18.625C12.2417 19.0083 12.05 19.4833 12.05 20.05C12.05 20.6167 12.2417 21.0917 12.625 21.475C13.0083 21.8583 13.4833 22.05 14.05 22.05ZM14.05 16.05C14.6167 16.05 15.0917 15.8583 15.475 15.475C15.8583 15.0917 16.05 14.6167 16.05 14.05C16.05 13.4833 15.8583 13.0083 15.475 12.625C15.0917 12.2417 14.6167 12.05 14.05 12.05C13.4833 12.05 13.0083 12.2417 12.625 12.625C12.2417 13.0083 12.05 13.4833 12.05 14.05C12.05 14.6167 12.2417 15.0917 12.625 15.475C13.0083 15.8583 13.4833 16.05 14.05 16.05ZM20 27.55H30V24.55H20V27.55ZM20 21.55H36.05V18.55H20V21.55ZM20 15.55H36.05V12.55H20V15.55ZM4 44V7C4 6.2 4.3 5.5 4.9 4.9C5.5 4.3 6.2 4 7 4H41C41.8 4 42.5 4.3 43.1 4.9C43.7 5.5 44 6.2 44 7V33C44 33.8 43.7 34.5 43.1 35.1C42.5 35.7 41.8 36 41 36H12L4 44Z" fill="white"/>
</g>
</svg>
