<svg width="48" height="48" viewBox="0 0 48 48" fill="none" xmlns="http://www.w3.org/2000/svg">
<mask id="mask0_3_269" style="mask-type:alpha" maskUnits="userSpaceOnUse" x="0" y="0" width="48" height="48">
<rect width="48" height="48" fill="#D9D9D9"/>
</mask>
<g mask="url(#mask0_3_269)">
<path d="M24.2 42C23.6333 42 23.15 41.8035 22.75 41.4106C22.35 41.0177 22.15 40.5308 22.15 39.95C22.15 39.7167 22.2 39.475 22.3 39.225C22.4 38.975 22.55 38.75 22.75 38.55L32 29.3L30.95 28.25L21.7 37.5C21.5 37.7 21.2833 37.85 21.05 37.95C20.8167 38.05 20.5667 38.1 20.3 38.1C19.7333 38.1 19.2583 37.9083 18.875 37.525C18.4917 37.1417 18.3 36.6667 18.3 36.1C18.3 35.7667 18.35 35.4917 18.45 35.275C18.55 35.0583 18.6833 34.8667 18.85 34.7L28.1 25.45L27.05 24.4L17.8 33.6C17.6 33.8 17.3833 33.95 17.15 34.05C16.9167 34.15 16.65 34.2 16.35 34.2C15.8167 34.2 15.35 34 14.95 33.6C14.55 33.2 14.35 32.7333 14.35 32.2C14.35 31.9333 14.4 31.6833 14.5 31.45C14.6 31.2167 14.75 31 14.95 30.8L24.2 21.55L23.15 20.5L13.95 29.75C13.7833 29.9167 13.5833 30.05 13.35 30.15C13.1167 30.25 12.8333 30.3 12.5 30.3C11.9333 30.3 11.4583 30.1131 11.075 29.7394C10.6917 29.3656 10.5 28.9025 10.5 28.35C10.5 28.0833 10.55 27.8333 10.65 27.6C10.75 27.3667 10.9 27.15 11.1 26.95L22.25 15.8L28.6 22.15C28.9667 22.5167 29.375 22.825 29.825 23.075C30.275 23.325 30.8167 23.45 31.45 23.45C32.5167 23.45 33.4167 23.1083 34.15 22.425C34.8833 21.7417 35.25 20.8167 35.25 19.65C35.25 19.1833 35.1583 18.725 34.975 18.275C34.7917 17.825 34.4833 17.3833 34.05 16.95L25.1 8L25.4 7.65C25.9667 7.11667 26.6 6.70833 27.3 6.425C28 6.14167 28.7 6 29.4 6C30.2667 6 31.0667 6.14167 31.8 6.425C32.5333 6.70833 33.2 7.15 33.8 7.75L42.25 16.25C42.85 16.85 43.2917 17.5167 43.575 18.25C43.8583 18.9833 44 19.8333 44 20.8C44 21.4667 43.85 22.1417 43.55 22.825C43.25 23.5083 42.8167 24.1333 42.25 24.7L25.6 41.4C25.3333 41.6667 25.1 41.8333 24.9 41.9C24.7 41.9667 24.4667 42 24.2 42ZM8.45 27.4L5.75 24.7C5.18333 24.1667 4.75 23.5333 4.45 22.8C4.15 22.0667 4 21.3 4 20.5C4 19.6333 4.16667 18.8333 4.5 18.1C4.83333 17.3667 5.25 16.75 5.75 16.25L14.2 7.75C14.7333 7.21667 15.3667 6.79167 16.1 6.475C16.8333 6.15833 17.55 6 18.25 6C19.15 6 19.95 6.125 20.65 6.375C21.35 6.625 22.0333 7.08333 22.7 7.75L32.95 18C33.25 18.3 33.4583 18.5833 33.575 18.85C33.6917 19.1167 33.75 19.3833 33.75 19.65C33.75 20.3167 33.5333 20.8667 33.1 21.3C32.6667 21.7333 32.1167 21.95 31.45 21.95C31.15 21.95 30.8417 21.875 30.525 21.725C30.2083 21.575 29.9 21.35 29.6 21.05L22.2 13.65L8.45 27.4Z" fill="white"/>
</g>
</svg>
