<svg width="48" height="48" viewBox="0 0 48 48" fill="none" xmlns="http://www.w3.org/2000/svg">
<mask id="mask0_3_293" style="mask-type:alpha" maskUnits="userSpaceOnUse" x="0" y="0" width="48" height="48">
<rect width="48" height="48" fill="#D9D9D9"/>
</mask>
<g mask="url(#mask0_3_293)">
<path d="M30 40C25.5333 40 21.75 38.45 18.65 35.35C15.55 32.25 14 28.4667 14 24C14 19.5333 15.55 15.75 18.65 12.65C21.75 9.55 25.5333 8 30 8C34.4667 8 38.25 9.55 41.35 12.65C44.45 15.75 46 19.5333 46 24C46 28.4667 44.45 32.25 41.35 35.35C38.25 38.45 34.4667 40 30 40ZM35.1 31.15L37.2 29.05L31.55 23.35L31.5 16H28.5V24.6L35.1 31.15ZM4 17.5V14.5H12V17.5H4ZM2 25.5V22.5H12V25.5H2ZM4 33.5V30.5H12V33.5H4Z" fill="white"/>
</g>
</svg>
