<svg width="48" height="48" viewBox="0 0 48 48" fill="none" xmlns="http://www.w3.org/2000/svg">
<mask id="mask0_3_278" style="mask-type:alpha" maskUnits="userSpaceOnUse" x="0" y="0" width="48" height="48">
<rect width="48" height="48" fill="#D9D9D9"/>
</mask>
<g mask="url(#mask0_3_278)">
<path d="M24 30.4C22.7333 30.4 21.6917 29.9083 20.875 28.925C20.0583 27.9417 19.65 26.8 19.65 25.5C19.65 24.4 20.0833 23.4917 20.95 22.775C21.8167 22.0583 22.8333 21.7 24 21.7C25.1667 21.7 26.1833 22.0583 27.05 22.775C27.9167 23.4917 28.35 24.4 28.35 25.5C28.35 26.8 27.9417 27.9417 27.125 28.925C26.3083 29.9083 25.2667 30.4 24 30.4ZM11 4H28.05L40 15.95V41C40 41.8 39.7 42.5 39.1 43.1C38.5 43.7 37.8 44 37 44H11C10.2 44 9.5 43.7 8.9 43.1C8.3 42.5 8 41.8 8 41V7C8 6.2 8.3 5.5 8.9 4.9C9.5 4.3 10.2 4 11 4ZM24 33.4C24.7667 33.4 25.475 33.3167 26.125 33.15C26.775 32.9833 27.4333 32.7 28.1 32.3L36.8 41H37V37.05L30.05 30.1C30.4833 29.5667 30.8083 28.95 31.025 28.25C31.2417 27.55 31.35 26.8167 31.35 26.05C31.35 23.9833 30.6417 22.2417 29.225 20.825C27.8083 19.4083 26.0667 18.7 24 18.7C21.9333 18.7 20.1917 19.4083 18.775 20.825C17.3583 22.2417 16.65 23.9833 16.65 26.05C16.65 28.1167 17.3583 29.8583 18.775 31.275C20.1917 32.6917 21.9333 33.4 24 33.4Z" fill="white"/>
</g>
</svg>
