<svg width="48" height="48" viewBox="0 0 48 48" fill="none" xmlns="http://www.w3.org/2000/svg">
<mask id="mask0_3_241" style="mask-type:alpha" maskUnits="userSpaceOnUse" x="0" y="0" width="48" height="48">
<rect width="48" height="48" fill="#D9D9D9"/>
</mask>
<g mask="url(#mask0_3_241)">
<path d="M33.05 41.2L38.9 35.35V40.3H40.4V32.8H32.9V34.3H37.85L32 40.15L33.05 41.2ZM36.65 45.95C34.05 45.95 31.8333 45.025 30 43.175C28.1667 41.325 27.25 39.1333 27.25 36.6C27.25 34 28.1667 31.775 30 29.925C31.8333 28.075 34.05 27.15 36.65 27.15C39.2167 27.15 41.425 28.075 43.275 29.925C45.125 31.775 46.05 34 46.05 36.6C46.05 39.1333 45.125 41.325 43.275 43.175C41.425 45.025 39.2167 45.95 36.65 45.95ZM14 17H34V14H14V17ZM25.5 42H9C8.16667 42 7.45833 41.7083 6.875 41.125C6.29167 40.5417 6 39.8333 6 39V9C6 8.16667 6.29167 7.45833 6.875 6.875C7.45833 6.29167 8.16667 6 9 6H39C39.8333 6 40.5417 6.29167 41.125 6.875C41.7083 7.45833 42 8.16667 42 9V25.45C41.1667 25.0167 40.3 24.7 39.4 24.5C38.5 24.3 37.5833 24.2 36.65 24.2C36.1833 24.2 35.7333 24.225 35.3 24.275C34.8667 24.325 34.4333 24.4 34 24.5V22.5H14V25.5H31.2C30 26.1 28.925 26.875 27.975 27.825C27.025 28.775 26.25 29.8333 25.65 31H14V34H24.55C24.45 34.4333 24.375 34.8667 24.325 35.3C24.275 35.7333 24.25 36.1833 24.25 36.65C24.25 37.6167 24.35 38.5333 24.55 39.4C24.75 40.2667 25.0667 41.1333 25.5 42Z" fill="white"/>
</g>
</svg>
