<svg width="48" height="48" viewBox="0 0 48 48" fill="none" xmlns="http://www.w3.org/2000/svg">
<mask id="mask0_3_284" style="mask-type:alpha" maskUnits="userSpaceOnUse" x="0" y="0" width="48" height="48">
<rect width="48" height="48" fill="#D9D9D9"/>
</mask>
<g mask="url(#mask0_3_284)">
<path d="M11 44C10.2 44 9.5 43.7 8.9 43.1C8.3 42.5 8 41.8 8 41V7C8 6.2 8.3 5.5 8.9 4.9C9.5 4.3 10.2 4 11 4H29.05L40 14.95V41C40 41.8 39.7 42.5 39.1 43.1C38.5 43.7 37.8 44 37 44H11ZM22.5 37.95H25.5V35.95H28.5C28.9333 35.95 29.2917 35.8083 29.575 35.525C29.8583 35.2417 30 34.8833 30 34.45V27.95C30 27.5167 29.8583 27.1583 29.575 26.875C29.2917 26.5917 28.9333 26.45 28.5 26.45H21V22.95H30V19.95H25.5V17.95H22.5V19.95H19.5C19.0667 19.95 18.7083 20.0917 18.425 20.375C18.1417 20.6583 18 21.0167 18 21.45V27.95C18 28.3833 18.1417 28.7417 18.425 29.025C18.7083 29.3083 19.0667 29.45 19.5 29.45H27V32.95H18V35.95H22.5V37.95ZM27.8 14.95H35.75L27.8 7V14.95Z" fill="white"/>
</g>
</svg>
