<svg width="48" height="48" viewBox="0 0 48 48" fill="none" xmlns="http://www.w3.org/2000/svg">
<mask id="mask0_3_253" style="mask-type:alpha" maskUnits="userSpaceOnUse" x="0" y="0" width="48" height="48">
<rect width="48" height="48" fill="#D9D9D9"/>
</mask>
<g mask="url(#mask0_3_253)">
<path d="M7.79998 31.1001L9.24998 29.6501L14.25 30.3501L23.05 21.5001L6.59998 12.55L8.54998 10.6L28.65 15.75L37.05 7.50005C37.5166 7.03338 38.1 6.80005 38.8 6.80005C39.5 6.80005 40.0833 7.03338 40.55 7.50005C41.0166 7.96672 41.25 8.55005 41.25 9.25005C41.25 9.95005 41.0166 10.5334 40.55 11L32.25 19.35L37.4 39.5001L35.45 41.4001L26.5 24.9501L17.7 33.8001L18.4 38.8001L16.95 40.2501L13.7 34.3501L7.79998 31.1001Z" fill="white"/>
</g>
</svg>
