<svg width="49" height="48" viewBox="0 0 49 48" fill="none" xmlns="http://www.w3.org/2000/svg">
<mask id="mask0_3_263" style="mask-type:alpha" maskUnits="userSpaceOnUse" x="0" y="0" width="49" height="48">
<rect x="0.674438" width="48" height="48" fill="#D9D9D9"/>
</mask>
<g mask="url(#mask0_3_263)">
<path d="M22.2244 26.6L19.8744 23.15C19.7078 22.95 19.5328 22.7917 19.3494 22.675C19.1661 22.5583 18.9411 22.5 18.6744 22.5H6.12444C5.59111 21.4333 5.21611 20.425 4.99944 19.475C4.78277 18.525 4.67444 17.55 4.67444 16.55C4.67444 13.55 5.68277 11.0417 7.69944 9.025C9.71611 7.00833 12.2078 6 15.1744 6C17.0744 6 18.8328 6.45 20.4494 7.35C22.0661 8.25 23.4744 9.55 24.6744 11.25C26.0744 9.45 27.5578 8.125 29.1244 7.275C30.6911 6.425 32.3744 6 34.1744 6C37.1411 6 39.6328 7.00833 41.6494 9.025C43.6661 11.0417 44.6744 13.55 44.6744 16.55C44.6744 17.55 44.5661 18.525 44.3494 19.475C44.1328 20.425 43.7578 21.4333 43.2244 22.5H31.5244L27.9244 17.2C27.7578 16.9667 27.5578 16.8 27.3244 16.7C27.0911 16.6 26.8411 16.55 26.5744 16.55C26.2744 16.55 25.9994 16.6417 25.7494 16.825C25.4994 17.0083 25.3244 17.25 25.2244 17.55L22.2244 26.6ZM24.6744 42.65L22.6244 40.8C18.8911 37.3667 15.8411 34.4333 13.4744 32C11.1078 29.5667 9.25777 27.4 7.92444 25.5H17.7744L21.3744 30.85C21.5411 31.0833 21.7494 31.25 21.9994 31.35C22.2494 31.45 22.5078 31.5 22.7744 31.5C23.0744 31.5 23.3411 31.4083 23.5744 31.225C23.8078 31.0417 23.9744 30.8 24.0744 30.5L27.1244 21.45L29.4244 24.85C29.5911 25.05 29.7744 25.2083 29.9744 25.325C30.1744 25.4417 30.4078 25.5 30.6744 25.5H41.4244C40.0911 27.4 38.2411 29.5667 35.8744 32C33.5078 34.4333 30.4578 37.3667 26.7244 40.8L24.6744 42.65Z" fill="white"/>
</g>
</svg>
