<svg width="48" height="48" viewBox="0 0 48 48" fill="none" xmlns="http://www.w3.org/2000/svg">
<mask id="mask0_3_272" style="mask-type:alpha" maskUnits="userSpaceOnUse" x="0" y="0" width="48" height="48">
<rect width="48" height="48" fill="#D9D9D9"/>
</mask>
<g mask="url(#mask0_3_272)">
<path d="M19.7 40.45C18.8333 39.1167 18.1167 37.7417 17.55 36.325C16.9833 34.9083 16.5167 33.3 16.15 31.5H8.6C9.76667 33.8333 11.2833 35.75 13.15 37.25C15.0167 38.75 17.2 39.8167 19.7 40.45ZM7.6 28.5H15.6C15.5 27.7 15.4333 26.975 15.4 26.325C15.3667 25.675 15.35 24.9333 15.35 24.1C15.35 23.4 15.3583 22.6917 15.375 21.975C15.3917 21.2583 15.45 20.45 15.55 19.55H7.6C7.36667 20.35 7.20833 21.0917 7.125 21.775C7.04167 22.4583 7 23.2333 7 24.1C7 24.9667 7.04167 25.7167 7.125 26.35C7.20833 26.9833 7.36667 27.7 7.6 28.5ZM8.6 16.55H16.1C16.5 14.7167 17 13.0667 17.6 11.6C18.2 10.1333 18.9167 8.76667 19.75 7.5C16.9167 8.46667 14.6667 9.625 13 10.975C11.3333 12.325 9.86667 14.1833 8.6 16.55ZM19.2 16.55H28.85C28.35 14.4167 27.7083 12.575 26.925 11.025C26.1417 9.475 25.1667 8.1 24 6.9C22.8333 8.13333 21.8583 9.55 21.075 11.15C20.2917 12.75 19.6667 14.55 19.2 16.55ZM31.95 16.55H39.4C38.2333 14.3833 36.6917 12.5333 34.775 11C32.8583 9.46667 30.7 8.31667 28.3 7.55C29.1333 8.81667 29.8417 10.1833 30.425 11.65C31.0083 13.1167 31.5167 14.75 31.95 16.55ZM24 44C21.2 44 18.5833 43.4917 16.15 42.475C13.7167 41.4583 11.6 40.05 9.8 38.25C8 36.45 6.58333 34.3417 5.55 31.925C4.51667 29.5083 4 26.9 4 24.1C4 21.3 4.51667 18.675 5.55 16.225C6.58333 13.775 8 11.65 9.8 9.85C11.6 8.05 13.7167 6.625 16.15 5.575C18.5833 4.525 21.2 4 24 4C26.8 4 29.4167 4.525 31.85 5.575C34.2833 6.625 36.4 8.05 38.2 9.85C40 11.65 41.4167 13.775 42.45 16.225C43.4833 18.675 44 21.3 44 24.1C44 24.6667 43.9833 25.2333 43.95 25.8C43.9167 26.3667 43.85 26.9333 43.75 27.5H40.65C40.7833 26.9333 40.875 26.3917 40.925 25.875C40.975 25.3583 41 24.7667 41 24.1C41 23.2333 40.9583 22.4583 40.875 21.775C40.7917 21.0917 40.6333 20.35 40.4 19.55H32.4C32.5 20.55 32.575 21.375 32.625 22.025C32.675 22.675 32.7 23.3667 32.7 24.1C32.7 24.5667 32.6917 25.0417 32.675 25.525C32.6583 26.0083 32.6167 26.6667 32.55 27.5H29.5C29.5667 26.8 29.6167 26.2 29.65 25.7C29.6833 25.2 29.7 24.6667 29.7 24.1C29.7 23.4 29.6833 22.725 29.65 22.075C29.6167 21.425 29.5333 20.5833 29.4 19.55H18.65C18.5167 20.5833 18.4333 21.425 18.4 22.075C18.3667 22.725 18.35 23.4 18.35 24.1C18.35 24.7667 18.3667 25.4083 18.4 26.025C18.4333 26.6417 18.5167 27.4667 18.65 28.5H27.5V31.5H19.2C19.8667 34 20.5667 35.9833 21.3 37.45C22.0333 38.9167 22.9333 40.1 24 41C24.7 40.2667 25.3417 39.45 25.925 38.55C26.5083 37.65 27.0333 36.7167 27.5 35.75V43.7C26.9333 43.8 26.3583 43.875 25.775 43.925C25.1917 43.975 24.6 44 24 44ZM39.9 42.05L33.5 35.65V40.8H30.5V30.5H40.8V33.5H35.6L42 39.9L39.9 42.05Z" fill="white"/>
</g>
</svg>
