<svg width="48" height="48" viewBox="0 0 48 48" fill="none" xmlns="http://www.w3.org/2000/svg">
<mask id="mask0_3_259" style="mask-type:alpha" maskUnits="userSpaceOnUse" x="0" y="0" width="48" height="48">
<rect width="48" height="48" fill="#D9D9D9"/>
</mask>
<g mask="url(#mask0_3_259)">
<path d="M39.7 41.05L41.05 39.7L36.85 35.9V29.7H34.75V36.5L39.7 41.05ZM19 12H29V7H19V12ZM36 45.65C33.3667 45.65 31.1 44.7 29.2 42.8C27.3 40.9 26.35 38.6333 26.35 36C26.35 33.3667 27.3 31.1 29.2 29.2C31.1 27.3 33.3667 26.35 36 26.35C38.6333 26.35 40.9 27.3 42.8 29.2C44.7 31.1 45.65 33.3667 45.65 36C45.65 38.6333 44.7 40.9 42.8 42.8C40.9 44.7 38.6333 45.65 36 45.65ZM7 42C6.2 42 5.5 41.7 4.9 41.1C4.3 40.5 4 39.8 4 39V15C4 14.2 4.3 13.5 4.9 12.9C5.5 12.3 6.2 12 7 12H16V7C16 6.23333 16.3 5.54167 16.9 4.925C17.5 4.30833 18.2 4 19 4H29C29.8 4 30.5 4.30833 31.1 4.925C31.7 5.54167 32 6.23333 32 7V12H41C41.8 12 42.5 12.3 43.1 12.9C43.7 13.5 44 14.2 44 15V26.25C42.8667 25.3167 41.6167 24.6 40.25 24.1C38.8833 23.6 37.4667 23.35 36 23.35C32.5333 23.35 29.5583 24.5917 27.075 27.075C24.5917 29.5583 23.35 32.5333 23.35 36C23.35 37.1667 23.475 38.2 23.725 39.1C23.975 40 24.3667 40.9667 24.9 42H7Z" fill="white"/>
</g>
</svg>
