<svg width="48" height="48" viewBox="0 0 48 48" fill="none" xmlns="http://www.w3.org/2000/svg">
<mask id="mask0_3_287" style="mask-type:alpha" maskUnits="userSpaceOnUse" x="0" y="0" width="48" height="48">
<rect width="48" height="48" fill="#D9D9D9"/>
</mask>
<g mask="url(#mask0_3_287)">
<path d="M24 45C21.4 42.7 18.5583 40.9333 15.475 39.7C12.3917 38.4667 9.23333 37.85 6 37.85V16.4C9.13333 16.4 12.2417 17.1167 15.325 18.55C18.4083 19.9833 21.3 21.9833 24 24.55C26.7 21.9833 29.5917 19.9833 32.675 18.55C35.7583 17.1167 38.8667 16.4 42 16.4V37.85C38.7667 37.85 35.6083 38.4667 32.525 39.7C29.4417 40.9333 26.6 42.7 24 45ZM24.15 17.4C21.9833 17.4 20.1583 16.6583 18.675 15.175C17.1917 13.6917 16.45 11.8667 16.45 9.7C16.45 7.53333 17.1917 5.70833 18.675 4.225C20.1583 2.74167 21.9833 2 24.15 2C26.3167 2 28.1417 2.74167 29.625 4.225C31.1083 5.70833 31.85 7.53333 31.85 9.7C31.85 11.8667 31.1083 13.6917 29.625 15.175C28.1417 16.6583 26.3167 17.4 24.15 17.4Z" fill="white"/>
</g>
</svg>
