<svg width="52" height="16" viewBox="0 0 52 16" fill="none" xmlns="http://www.w3.org/2000/svg">
<path d="M37.5643 0.730699C36.3633 0.293109 35.0939 0.0735233 33.8158 0.0822834C29.6825 0.0822834 26.7633 2.16445 26.7427 5.15337C26.7168 7.3492 28.8171 8.58662 30.4058 9.32028C32.0359 10.0746 32.581 10.55 32.5758 11.2242C32.5655 12.2498 31.2738 12.7148 30.0726 12.7148C28.4218 12.7148 27.5203 12.4849 26.133 11.9088L25.6189 11.6685L25.0325 15.1095C26.0374 15.528 27.8483 15.8871 29.7187 15.9181C34.1129 15.9181 36.9856 13.8489 37.0192 10.6688C37.0553 8.9147 35.9187 7.58945 33.5265 6.49412C32.0721 5.7837 31.1705 5.30837 31.1705 4.58762C31.1705 3.94953 31.9429 3.26753 33.5575 3.26753C34.6321 3.24153 35.7 3.44314 36.6911 3.85912L37.0786 4.0322L37.665 0.707449L37.5643 0.730699ZM48.2903 0.361283H45.0611C44.0562 0.361283 43.2993 0.6377 42.8601 1.63487L36.6498 15.7037H41.044L41.9223 13.3968L47.2853 13.4019C47.4119 13.9419 47.7994 15.7037 47.7994 15.7037H51.6744L48.2903 0.361283ZM20.7984 0.232116H24.986L22.3665 15.5823H18.1841L20.7984 0.226949V0.232116ZM10.168 8.69253L10.602 10.8238L14.694 0.361283H19.1296L12.5395 15.683H8.11425L4.49758 2.70953C4.43901 2.49561 4.30144 2.31189 4.11267 2.19545C2.80912 1.52207 1.42793 1.01106 0 0.673864L0.0568332 0.350948H6.79675C7.71125 0.387114 8.4475 0.673865 8.69292 1.65037L10.1654 8.70028L10.168 8.69253ZM43.1236 10.258L44.7924 5.96453C44.7718 6.01103 45.136 5.07845 45.3478 4.50237L45.6346 5.82762L46.6033 10.2554H43.121L43.1236 10.258Z" fill="white"/>
</svg>
